<svg width="1500" height="500" viewBox="0 0 1500 500" style="position:absolute;left:0;bottom:0"><line x1="49" x2="49" y1="307" y2="404" stroke="#FF6B8A" stroke-width="2" opacity="0.36"/><rect x="40" y="331" width="18" height="49" rx="2" fill="#FF6B8A" opacity="0.6"/><line x1="80" x2="80" y1="312" y2="409" stroke="#D9FF4D" stroke-width="2" opacity="0.54"/><rect x="71" y="341" width="18" height="39" rx="2" fill="#D9FF4D" opacity="0.9"/><line x1="111" x2="111" y1="263" y2="393" stroke="#FF6B8A" stroke-width="2" opacity="0.36"/><rect x="102" y="276" width="18" height="104" rx="2" fill="#FF6B8A" opacity="0.6"/><line x1="142" x2="142" y1="310" y2="393" stroke="#D9FF4D" stroke-width="2" opacity="0.54"/><rect x="133" y="323" width="18" height="57" rx="2" fill="#D9FF4D" opacity="0.9"/><line x1="173" x2="173" y1="283" y2="394" stroke="#FF6B8A" stroke-width="2" opacity="0.36"/><rect x="164" y="297" width="18" height="83" rx="2" fill="#FF6B8A" opacity="0.6"/><line x1="204" x2="204" y1="255" y2="405" stroke="#FF6B8A" stroke-width="2" opacity="0.36"/><rect x="195" y="280" width="18" height="100" rx="2" fill="#FF6B8A" opacity="0.6"/><line x1="235" x2="235" y1="263" y2="395" stroke="#FF6B8A" stroke-width="2" opacity="0.36"/><rect x="226" y="278" width="18" height="102" rx="2" fill="#FF6B8A" opacity="0.6"/><line x1="266" x2="266" y1="238" y2="412" stroke="#D9FF4D" stroke-width="2" opacity="0.54"/><rect x="257" y="270" width="18" height="110" rx="2" fill="#D9FF4D" opacity="0.9"/><line x1="297" x2="297" y1="313" y2="410" stroke="#D9FF4D" stroke-width="2" opacity="0.54"/><rect x="288" y="343" width="18" height="37" rx="2" fill="#D9FF4D" opacity="0.9"/><line x1="328" x2="328" y1="325" y2="399" stroke="#D9FF4D" stroke-width="2" opacity="0.54"/><rect x="319" y="344" width="18" height="36" rx="2" fill="#D9FF4D" opacity="0.9"/><line x1="359" x2="359" y1="225" y2="396" stroke="#FF6B8A" stroke-width="2" opacity="0.36"/><rect x="350" y="241" width="18" height="139" rx="2" fill="#FF6B8A" opacity="0.6"/><line x1="390" x2="390" y1="303" y2="409" stroke="#FF6B8A" stroke-width="2" opacity="0.36"/><rect x="381" y="332" width="18" height="48" rx="2" fill="#FF6B8A" opacity="0.6"/><line x1="421" x2="421" y1="282" y2="409" stroke="#FF6B8A" stroke-width="2" opacity="0.36"/><rect x="412" y="311" width="18" height="69" rx="2" fill="#FF6B8A" opacity="0.6"/><line x1="452" x2="452" y1="312" y2="395" stroke="#D9FF4D" stroke-width="2" opacity="0.54"/><rect x="443" y="327" width="18" height="53" rx="2" fill="#D9FF4D" opacity="0.9"/><line x1="483" x2="483" y1="251" y2="398" stroke="#D9FF4D" stroke-width="2" opacity="0.54"/><rect x="474" y="269" width="18" height="111" rx="2" fill="#D9FF4D" opacity="0.9"/><line x1="514" x2="514" y1="246" y2="414" stroke="#D9FF4D" stroke-width="2" opacity="0.54"/><rect x="505" y="280" width="18" height="100" rx="2" fill="#D9FF4D" opacity="0.9"/><line x1="545" x2="545" y1="312" y2="411" stroke="#FF6B8A" stroke-width="2" opacity="0.36"/><rect x="536" y="343" width="18" height="37" rx="2" fill="#FF6B8A" opacity="0.6"/><line x1="576" x2="576" y1="234" y2="409" stroke="#FF6B8A" stroke-width="2" opacity="0.36"/><rect x="567" y="263" width="18" height="117" rx="2" fill="#FF6B8A" opacity="0.6"/><line x1="607" x2="607" y1="284" y2="406" stroke="#D9FF4D" stroke-width="2" opacity="0.54"/><rect x="598" y="310" width="18" height="70" rx="2" fill="#D9FF4D" opacity="0.9"/><line x1="638" x2="638" y1="269" y2="403" stroke="#D9FF4D" stroke-width="2" opacity="0.54"/><rect x="629" y="292" width="18" height="88" rx="2" fill="#D9FF4D" opacity="0.9"/><line x1="669" x2="669" y1="232" y2="397" stroke="#FF6B8A" stroke-width="2" opacity="0.36"/><rect x="660" y="249" width="18" height="131" rx="2" fill="#FF6B8A" opacity="0.6"/><line x1="700" x2="700" y1="305" y2="394" stroke="#D9FF4D" stroke-width="2" opacity="0.54"/><rect x="691" y="319" width="18" height="61" rx="2" fill="#D9FF4D" opacity="0.9"/><line x1="731" x2="731" y1="256" y2="407" stroke="#D9FF4D" stroke-width="2" opacity="0.54"/><rect x="722" y="283" width="18" height="97" rx="2" fill="#D9FF4D" opacity="0.9"/><line x1="762" x2="762" y1="231" y2="406" stroke="#D9FF4D" stroke-width="2" opacity="0.54"/><rect x="753" y="257" width="18" height="123" rx="2" fill="#D9FF4D" opacity="0.9"/><line x1="793" x2="793" y1="326" y2="395" stroke="#FF6B8A" stroke-width="2" opacity="0.36"/><rect x="784" y="341" width="18" height="39" rx="2" fill="#FF6B8A" opacity="0.6"/><line x1="824" x2="824" y1="307" y2="402" stroke="#D9FF4D" stroke-width="2" opacity="0.54"/><rect x="815" y="329" width="18" height="51" rx="2" fill="#D9FF4D" opacity="0.9"/><line x1="855" x2="855" y1="263" y2="405" stroke="#FF6B8A" stroke-width="2" opacity="0.36"/><rect x="846" y="288" width="18" height="92" rx="2" fill="#FF6B8A" opacity="0.6"/><line x1="886" x2="886" y1="251" y2="394" stroke="#FF6B8A" stroke-width="2" opacity="0.36"/><rect x="877" y="265" width="18" height="115" rx="2" fill="#FF6B8A" opacity="0.6"/><line x1="917" x2="917" y1="255" y2="402" stroke="#D9FF4D" stroke-width="2" opacity="0.54"/><rect x="908" y="277" width="18" height="103" rx="2" fill="#D9FF4D" opacity="0.9"/><line x1="948" x2="948" y1="275" y2="411" stroke="#FF6B8A" stroke-width="2" opacity="0.36"/><rect x="939" y="306" width="18" height="74" rx="2" fill="#FF6B8A" opacity="0.6"/><line x1="979" x2="979" y1="222" y2="406" stroke="#D9FF4D" stroke-width="2" opacity="0.54"/><rect x="970" y="248" width="18" height="132" rx="2" fill="#D9FF4D" opacity="0.9"/><line x1="1010" x2="1010" y1="319" y2="400" stroke="#FF6B8A" stroke-width="2" opacity="0.36"/><rect x="1001" y="339" width="18" height="41" rx="2" fill="#FF6B8A" opacity="0.6"/><line x1="1041" x2="1041" y1="251" y2="394" stroke="#D9FF4D" stroke-width="2" opacity="0.54"/><rect x="1032" y="265" width="18" height="115" rx="2" fill="#D9FF4D" opacity="0.9"/><line x1="1072" x2="1072" y1="240" y2="401" stroke="#FF6B8A" stroke-width="2" opacity="0.36"/><rect x="1063" y="261" width="18" height="119" rx="2" fill="#FF6B8A" opacity="0.6"/><line x1="1103" x2="1103" y1="237" y2="406" stroke="#D9FF4D" stroke-width="2" opacity="0.54"/><rect x="1094" y="263" width="18" height="117" rx="2" fill="#D9FF4D" opacity="0.9"/><line x1="1134" x2="1134" y1="268" y2="413" stroke="#FF6B8A" stroke-width="2" opacity="0.36"/><rect x="1125" y="301" width="18" height="79" rx="2" fill="#FF6B8A" opacity="0.6"/><line x1="1165" x2="1165" y1="204" y2="406" stroke="#FF6B8A" stroke-width="2" opacity="0.36"/><rect x="1156" y="230" width="18" height="150" rx="2" fill="#FF6B8A" opacity="0.6"/><line x1="1196" x2="1196" y1="257" y2="395" stroke="#FF6B8A" stroke-width="2" opacity="0.36"/><rect x="1187" y="272" width="18" height="108" rx="2" fill="#FF6B8A" opacity="0.6"/><line x1="1227" x2="1227" y1="302" y2="401" stroke="#D9FF4D" stroke-width="2" opacity="0.54"/><rect x="1218" y="323" width="18" height="57" rx="2" fill="#D9FF4D" opacity="0.9"/><line x1="1258" x2="1258" y1="295" y2="404" stroke="#FF6B8A" stroke-width="2" opacity="0.36"/><rect x="1249" y="319" width="18" height="61" rx="2" fill="#FF6B8A" opacity="0.6"/><line x1="1289" x2="1289" y1="212" y2="407" stroke="#D9FF4D" stroke-width="2" opacity="0.54"/><rect x="1280" y="239" width="18" height="141" rx="2" fill="#D9FF4D" opacity="0.9"/><line x1="1320" x2="1320" y1="269" y2="404" stroke="#FF6B8A" stroke-width="2" opacity="0.36"/><rect x="1311" y="293" width="18" height="87" rx="2" fill="#FF6B8A" opacity="0.6"/><line x1="1351" x2="1351" y1="221" y2="396" stroke="#D9FF4D" stroke-width="2" opacity="0.54"/><rect x="1342" y="237" width="18" height="143" rx="2" fill="#D9FF4D" opacity="0.9"/><line x1="1382" x2="1382" y1="211" y2="409" stroke="#D9FF4D" stroke-width="2" opacity="0.54"/><rect x="1373" y="240" width="18" height="140" rx="2" fill="#D9FF4D" opacity="0.9"/><line x1="1413" x2="1413" y1="274" y2="403" stroke="#FF6B8A" stroke-width="2" opacity="0.36"/><rect x="1404" y="297" width="18" height="83" rx="2" fill="#FF6B8A" opacity="0.6"/><line x1="1444" x2="1444" y1="283" y2="399" stroke="#D9FF4D" stroke-width="2" opacity="0.54"/><rect x="1435" y="302" width="18" height="78" rx="2" fill="#D9FF4D" opacity="0.9"/></svg>